

Liceo di Faber, 1962. Larry e Kent, due giovani matricole, sono impazienti d'iscriversi a una delle varie fratellanze del college. Rifiutati dalla "Omega Theta Phi", composta da studenti ricchi e snob, capitanata dal cadetto militare Niedermeyer, vengono accettati dalla sgangherata "Delta Tau Chi", diretta da John Blutarsky detto "Bluto"[2], composta solo da studenti ripetenti con voti infimi e una condotta disastrosa e da cui è bandita ogni regola sociale. L'audacia della loro goliardia non conosce limiti.
La rivalità tra le due fratellanze sfocia nel grottesco, dal cavallo di Niedermeyer, ucciso dallo sparo di una pistola a salve, a "Bluto" che spia Mandy, compagna del rivale, la quale, fingendosi ignara, improvvisa un sensualissimo spogliarello alla finestra...........



Faber College has one frat house so disreputable it will take anyone. It has a second one full of white, anglo-saxon, rich young men who are so sanctimonious no one can stand them except Dean Wormer. The dean enlists the help of the second frat to get the boys of Delta House off campus. The dean's plan comes into play just before the homecoming parade to end all parades for all time.....

General
Complete name : F:Animal House - National Lampoon's Animal House (1978)Animal House (1978).avi
Format : AVI
Format/Info : Audio Video Interleave
File size : 1.66 GiB
Duration : 1h 44mn
Overall bit rate : 2 281 Kbps
Writing application : VirtualDubMod 1.5.4.1 (build 2178/release)
Writing library : VirtualDubMod build 2178/release

Video
ID : 0
Format : MPEG-4 Visual
Format profile : Advanced Simple@L5
Format settings, BVOP : No
Format settings, QPel : No
Format settings, GMC : No warppoints
Format settings, Matrix : Custom
Codec ID : XVID
Codec ID/Hint : XviD
Duration : 1h 44mn
Bit rate : 1 696 Kbps
Width : 720 pixels
Height : 384 pixels
Display aspect ratio : 1.875
Frame rate : 25.000 fps
Color space : YUV
Chroma subsampling : 4:2:0
Bit depth : 8 bits
Scan type : Progressive
Bits/(Pixel*Frame) : 0.245
Stream size : 1.23 GiB (74%)
Writing library : XviD 1.2.1 (UTC 2008-12-04)

Audio #1
ID : 1
Format : AC-3
Format/Info : Audio Coding 3
Mode extension : CM (complete main)
Codec ID : 2000
Duration : 1h 44mn
Bit rate mode : Constant
Bit rate : 192 Kbps
Channel(s) : 2 channels
Channel positions : Front: L R
Sampling rate : 48.0 KHz
Bit depth : 16 bits
Stream size : 143 MiB (8%)
Alignment : Aligned on interleaves
Interleave, duration : 96 ms (2.40 video frames)
Interleave, preload duration : 96 ms
Language : Italian

Audio #2
ID : 2
Format : AC-3
Format/Info : Audio Coding 3
Mode extension : CM (complete main)
Codec ID : 2000
Duration : 1h 44mn
Bit rate mode : Constant
Bit rate : 384 Kbps
Channel(s) : 6 channels
Channel positions : Front: L C R, Side: L R, LFE
Sampling rate : 48.0 KHz
Bit depth : 16 bits
Stream size : 286 MiB (17%)
Alignment : Aligned on interleaves
Interleave, duration : 96 ms (2.40 video frames)
Interleave, preload duration : 96 ms
Language : English